# xmcd
#
# Track frame offsets:
#	182
#	17820
#	31055
#	47962
#	63980
#	78860
#	95292
#	105962
#	119777
#	134697
#	151260
#	164472
#	180927
#	199500
#	214752
#	226307
#	242905
#	256140
#
# Disc length: 3577
#
# Revision: 2
# Processed by: cddbd v1.5.1PL0 Copyright (c) Steve Scherf et al.
# Submitted via: CDex 1.50Beta7
# Normalized: r1:TDELIM( - )
#
DISCID=e70df712
DTITLE=Various Artist - Country Crossroads Disc 2
DYEAR=1993
DGENRE=Country
TTITLE0=Linda Ronstadt - Blue Bayou
TTITLE1=Kenny Rogers - Ruby, Don't take your love to town
TTITLE2=Ronnie Milsap - Smoky Mountain Rain
TTITLE3=Willie Nelson - Always on my mind
TTITLE4=Jeanne Pruett - Satin Sheets
TTITLE5=T. G. Sheppard - I loved 'em every one
TTITLE6=Jerry Reed - When you're hot, you're hot
TTITLE7=Barbara Fairchild - Teddy Bear Song
TTITLE8=Ray Stevens - The Streak
TTITLE9=Olivia Newton-John - I honestly love you
TTITLE10=Michael Johnson - Bluer than blue
TTITLE11=Debby Boone - You light up my life
TTITLE12=Don Williams - I believe in you
TTITLE13=Jessi Colter - I'm not Lisa
TTITLE14=Sammi Smith - Help me make it through the night
TTITLE15=Eddie Rabbitt - Step by step
TTITLE16=Charlie Rich - Behind closed doors
TTITLE17=Freddy Fender - Wasted days and wasted nights
EXTD=YEAR: 1993
EXTT0=
EXTT1=
EXTT2=
EXTT3=
EXTT4=
EXTT5=
EXTT6=
EXTT7=
EXTT8=
EXTT9=
EXTT10=
EXTT11=
EXTT12=
EXTT13=
EXTT14=
EXTT15=
EXTT16=
EXTT17=
PLAYORDER=
